<?xml version="1.0" standalone="no"?>
<!DOCTYPE svg PUBLIC "-//W3C//DTD SVG 20010904//EN"
 "http://www.w3.org/TR/2001/REC-SVG-20010904/DTD/svg10.dtd">
<svg version="1.0" xmlns="http://www.w3.org/2000/svg"
 width="512.000000pt" height="512.000000pt" viewBox="0 0 512.000000 512.000000"
 preserveAspectRatio="xMidYMid meet">
<metadata>
Created by potrace 1.14, written by Peter Selinger 2001-2017
</metadata>
<g transform="translate(0.000000,512.000000) scale(0.100000,-0.100000)"
fill="#000000" stroke="none">
<path d="M770 5101 c-173 -37 -330 -118 -458 -237 -153 -141 -244 -302 -299
-529 -4 -16 -9 -339 -10 -716 l-4 -687 341 0 c370 0 401 -3 510 -55 87 -42
196 -149 238 -237 32 -64 60 -173 298 -1140 196 -795 217 -880 220 -877 3 2
72 347 79 392 2 11 11 58 20 105 9 47 19 96 22 110 8 44 75 384 79 405 3 11 6
32 9 47 2 15 6 35 9 45 3 10 8 34 11 53 3 19 19 103 35 185 71 360 150 763
155 795 3 19 8 42 10 50 2 8 6 26 9 40 2 14 15 84 29 155 115 585 177 905 181
930 3 17 26 134 51 260 26 127 48 241 50 255 3 20 51 262 91 460 2 14 7 39 9
55 3 17 11 58 18 93 l14 62 -816 -1 c-742 -1 -824 -2 -901 -18z"/>
<path d="M2960 5111 c0 -8 26 -117 45 -193 3 -10 7 -26 9 -35 8 -33 55 -227
131 -538 42 -170 87 -357 101 -415 13 -58 29 -121 34 -140 11 -36 188 -759
196 -795 2 -11 22 -94 45 -185 22 -91 43 -174 45 -185 2 -11 19 -83 39 -160
19 -77 77 -315 130 -530 52 -214 99 -403 103 -420 l9 -30 17 40 c10 22 19 45
20 50 1 6 7 19 13 30 6 11 11 22 11 25 1 19 395 1003 415 1039 63 107 169 193
292 236 67 23 101 26 375 29 l125 1 0 685 c0 731 1 717 -49 858 -85 237 -258
431 -481 541 -201 98 -214 100 -977 101 -409 0 -648 -3 -648 -9z"/>
<path d="M2727 4475 c-3 -11 -20 -94 -37 -185 -18 -91 -33 -172 -35 -180 -2
-8 -26 -134 -54 -280 -28 -146 -55 -283 -61 -305 -5 -22 -12 -56 -15 -75 -3
-19 -21 -114 -40 -210 -19 -96 -36 -186 -39 -200 -2 -14 -11 -59 -20 -100 -8
-41 -18 -88 -20 -105 -3 -16 -22 -111 -41 -210 -20 -99 -38 -191 -40 -205 -2
-14 -7 -36 -9 -50 -7 -33 -67 -338 -73 -370 -2 -14 -11 -59 -20 -100 -8 -41
-17 -86 -19 -100 -3 -14 -16 -83 -30 -155 -15 -71 -28 -139 -29 -150 -3 -16
-52 -266 -71 -360 -2 -11 -15 -78 -29 -150 -14 -71 -28 -141 -31 -155 -3 -14
-7 -36 -9 -50 -2 -14 -13 -72 -25 -130 -12 -58 -23 -116 -26 -130 -2 -14 -9
-45 -14 -70 -5 -25 -12 -60 -15 -79 -6 -38 -62 -325 -69 -354 -4 -17 49 -18
1227 -15 l1232 4 93 27 c274 80 491 257 607 496 53 108 53 108 77 196 22 79
22 87 26 958 l3 877 -38 1 c-329 4 -369 -1 -425 -55 -35 -34 -38 -39 -211
-481 -406 -1035 -489 -1242 -505 -1264 -27 -37 -81 -61 -135 -61 -55 0 -90 16
-129 57 -36 38 -44 59 -103 303 -30 124 -92 376 -120 490 -20 80 -38 154 -40
165 -5 21 -23 96 -81 332 -19 77 -37 149 -39 160 -2 10 -16 65 -30 123 -15 58
-28 112 -30 120 -2 8 -29 119 -60 245 -31 127 -58 237 -60 245 -2 8 -29 116
-59 240 -31 124 -58 234 -60 245 -3 11 -30 124 -61 250 -31 127 -59 237 -60
245 -2 8 -18 74 -36 145 -17 72 -49 198 -69 280 -23 94 -39 142 -43 130z"/>
<path d="M37 2562 l-37 -3 1 -852 c1 -782 2 -859 19 -937 83 -387 371 -672
762 -753 94 -20 600 -24 594 -5 -6 17 -77 307 -82 331 -2 10 -6 27 -9 37 -3
10 -7 27 -9 37 -2 10 -27 112 -56 226 -28 114 -53 215 -55 225 -2 9 -31 130
-65 267 -34 138 -63 257 -65 265 -2 8 -11 44 -20 80 -9 36 -18 72 -20 80 -2 8
-35 146 -75 305 -39 160 -73 297 -75 305 -62 272 -89 337 -157 372 -33 17 -64
19 -325 21 -158 1 -305 1 -326 -1z"/>
</g>
</svg>
